<?xml version="1.0" encoding="UTF-8"?><svg id="Layer_1" xmlns="http://www.w3.org/2000/svg" viewBox="0 0 202.03 84.02"><defs><style>.cls-1{fill:#6c7654;}</style></defs><path class="cls-1" d="M0,82.62v-5.82H6.48V7.21H0V1.4H16.76V7.21h-6.48V76.8h6.48v5.82H0Z"/><path class="cls-1" d="M30.93,10.94h-.19V82.62h-3.68V1.4h4.76l23.31,71.68h.19V1.4h3.68V82.62h-4.76L30.93,10.94Z"/><path class="cls-1" d="M67.96,70.17l2.86-4.31c3.11,7.56,6.86,11.99,12.64,11.99,6.86,0,10.67-6.28,10.67-16.99,0-10.01-3.3-13.85-8.95-16.06l-3.94-1.51c-8.38-3.14-12.07-10.47-12.07-21.76,0-14.2,5.72-21.53,14.22-21.53,6.6,0,11.11,4.65,14.03,12.45l-2.86,3.84c-2.48-6.4-6.03-10.12-11.37-10.12-6.35,0-10.29,5.12-10.29,15.13s3.56,13.38,9.08,15.48l3.94,1.51c8.83,3.49,11.94,11.05,11.94,22.23,0,14.78-5.53,23.51-14.54,23.51-7.24,0-11.94-5.47-15.37-13.85Z"/><path class="cls-1" d="M105.37,82.62v-5.82h6.48V7.21h-6.48V1.4h16.76V7.21h-6.48V76.8h6.48v5.82h-16.76Z"/><path class="cls-1" d="M161.25,70.17h-.19c-1.59,8.26-6.16,13.85-13.02,13.85-10.92,0-17.91-14.55-17.91-42.01S137.06,0,148.3,0c7.56,0,12.83,6.98,15.5,17.34l-3.11,3.38c-2.16-8.96-6.54-14.43-12.38-14.43-8.57,0-14.1,11.4-14.1,30.72v9.89c0,19.43,5.46,30.84,14.42,30.84,6.73,0,12.45-6.52,12.45-19.78v-9.78h-10.35v-6.05h14.1v40.5h-3.56v-12.45Z"/><path class="cls-1" d="M187.17,7.56V82.62h-3.81V7.56h-14.86V1.4h33.53V7.56h-14.86Z"/></svg>