<?xml version="1.0" encoding="UTF-8"?><svg id="Layer_1" xmlns="http://www.w3.org/2000/svg" viewBox="0 0 99.77 88.58"><defs><style>.cls-1{fill:#fff;}</style></defs><path class="cls-1" d="M7.43,2.99H0V.33H16.53V2.99h-7.47V45.09h-1.63V2.99Z"/><path class="cls-1" d="M20.51,.33V19.99h12.63V.33h1.6c-.04,13.9-.07,27.79-.11,41.69-.51,.26-1.01,.52-1.52,.78,.01-6.69,.02-13.39,.03-20.08h-12.63v22.38h-1.6V.33h1.6Z"/><path class="cls-1" d="M51.06,22.85h-9.17v19.59h10.25v2.66h-11.85V.33h11.3V2.99h-9.71V20.19h9.17v2.66Z"/><path class="cls-1" d="M63.7,.93c1.76-.53,3.77-.93,5.95-.93,4.25,0,7.47,2.19,9.41,6.11,1.87,3.72,2.91,8.7,2.91,15.47s-.93,12.55-3.04,17c-2.08,4.32-5.57,6.84-10.07,6.84-1.8,0-3.49-.07-5.15-.4V.93Zm1.63,41.51c.97,.27,2.32,.33,3.77,.33,7.47,0,11.17-8.04,11.17-20.99,.03-11.36-3.25-19.13-10.72-19.13-1.8,0-3.22,.33-4.22,.66V42.44Z"/><path class="cls-1" d="M97.05,22.85h-9.34v19.59c1.3,.03,2.61,.07,3.91,.1,.24,.83,.48,1.65,.72,2.48-2.09,.03-4.17,.05-6.26,.08V.33h11.52V2.99h-9.89V20.19h9.34v2.66Z"/><path class="cls-1" d="M2.35,82.93c1.29,1.73,3.09,2.99,5.02,2.99,3.4,0,5.5-3.79,5.5-9.3,0-5.05-1.32-7.97-4.62-10.49-3.7-2.52-5.91-6.24-5.91-12.35,0-3.5,1.1-8.43,3.9-10.45,1.07-.78,2.1-.91,2.75-.9,.02,.89,.04,1.78,.06,2.67-.62-.04-1.79,.04-2.89,1.11-2.1,2.05-2.23,6.03-2.23,7.04,0,4.98,1.46,7.5,4.75,10.03,3.77,2.99,5.77,6.31,5.77,13.02s-2.38,12.29-7.26,12.29c-1.97,0-4.28-1.26-5.46-2.99l.61-2.66Z"/><path class="cls-1" d="M20.51,42.88v44.76h-1.6V42.88h1.6Z"/><path class="cls-1" d="M44.03,85.25c-1.15,.93-3.53,2.46-6.65,2.46s-5.8-1.53-8.11-5.91c-1.87-3.59-3.12-9.56-3.12-16.8,0-12.42,4.14-22.98,11.92-22.98,2.48,0,4.45,1.2,5.33,1.99-1.03,.36-2.05,.73-3.08,1.09-.56-.18-1.35-.37-2.31-.36,0,0-2.32-.1-4.42,1.56-3.65,2.89-5.76,9.58-5.76,18.56,0,12.62,3.8,20.12,9.84,20.12,2.38,0,3.94-.66,4.79-1.53v-15.81h-5.33v-2.59h6.93v20.19Z"/><path class="cls-1" d="M50.73,87.38V42.48h1.36l7.97,26.52c1.64,5.6,2.82,9.79,3.82,14.12l.06-.07c-.21-6.06-.24-11.19-.24-18.25v-22.32h1.42v44.9h-1.36l-7.78-26.12c-1.51-5.2-2.91-9.93-3.97-14.52l-.06,.07c.15,5.53,.18,10.39,.18,17.86v22.72h-1.39Z"/><path class="cls-1" d="M80.16,65.39h-9.34v19.59h10.45v2.66h-12.07V42.88h6.52l-4.91,2.36c0,5.83,0,11.66,.01,17.49h9.34v2.66Z"/><path class="cls-1" d="M86.07,43.48c1.42-.6,3.42-.93,5.02-.93,3.04,0,4.95,1.26,6.3,3.72,1,1.86,1.63,4.85,1.63,7.97,0,6.04-1.87,9.9-4.57,11.69v.13c1.87,1.13,3.04,4.52,3.6,9.5,.8,6.97,1.24,10.29,1.73,12.09h-1.73c-.35-1.33-.86-5.25-1.49-10.89-.69-6.44-2.14-9.36-5.22-9.63h-3.63v20.52h-1.63V43.48Zm1.63,21.05h3.7c3.6,0,5.95-3.85,5.95-9.76,0-6.84-2.63-9.63-6.3-9.63-1.59,0-2.77,.33-3.35,.6v18.8Z"/></svg>