<?xml version="1.0" encoding="UTF-8"?><svg id="Layer_1" xmlns="http://www.w3.org/2000/svg" xmlns:xlink="http://www.w3.org/1999/xlink" viewBox="0 0 485.87 485.87"><defs><style>.cls-1,.cls-2{fill:none;}.cls-3{clip-path:url(#clippath);}.cls-4{fill:#adbeb0;}.cls-5{fill:#171717;}.cls-6{fill:#5c6a60;}.cls-7{fill:#526455;}.cls-8{fill:#282828;}.cls-9{clip-path:url(#clippath-1);}.cls-10{clip-path:url(#clippath-3);}.cls-11{clip-path:url(#clippath-2);}.cls-2{stroke:#231f20;stroke-miterlimit:10;}</style><clipPath id="clippath"><rect class="cls-1" x="145.29" y="117.44" width="111.55" height="173.16" transform="translate(-25.94 378.72) rotate(-83)"/></clipPath><clipPath id="clippath-1"><polygon class="cls-1" points="368.68 348.14 340.9 422.12 254.14 383.65 281.93 309.67 368.68 348.14"/></clipPath><clipPath id="clippath-2"><rect class="cls-1" x="80.83" y="283.45" width="125.76" height="75.76" transform="translate(-188.92 436.48) rotate(-85)"/></clipPath><clipPath id="clippath-3"><rect class="cls-1" x="185.28" y="241.81" width="106.99" height="173.37"/></clipPath></defs><g id="Group_10"><g class="cls-3"><g id="Group_9"><path id="Path_199" class="cls-4" d="M163.17,244.95c12.98,7.56,32.21,18.77,58.19,15.5,24.61-3.1,60.62-19.85,65.58-45.93,4.28-22.52-16.69-40.98-17.58-41.74-27.73-23.7-57.51,3.63-104.51-16.81-21.04-9.15-27.88-20.21-36.16-15.21-12.92,7.8-13.96,45.36-.89,70.92,9.22,18.02,23.56,26.38,35.37,33.26"/></g></g></g><g id="Group_12"><path id="Path_200" d="M253.1,200.6c1.28-3.28,1.64-3.92,1.69-5.33,.06-1.83-.44-2.94-1.27-5.33-.88-2.55-1.58-5.15-2.11-7.79-.77-4.33,.1-5.26-.84-11.07-.75-4.65-1.45-4.91-1.69-4.92-.5-.03-.96,.89-1.27,1.64-3.5,8.48-2.11,18.86-2.11,18.86,1.17,8.73,3.01,13.79,2.53,13.94-.46,.14-2.5-4.27-3.79-8.61-.87-2.94-1.44-5.96-1.69-9.02-.36-3.56-.22-7.14,.42-10.66,.58-3.44,1.72-6.76,3.37-9.84,2.7-4.93,6.12-7.77,9.69-10.66,4.85-3.91,10.24-7.09,16.01-9.43,9.65-3.96,16.57-6.8,24.43-4.92,7.97,1.91,12.24,7.55,16.85,5.33,2.74-1.32,3.27-4.33,6.32-4.51,2.2-.13,4.74,1.23,5.06,2.87,.31,1.58-1.59,2.68-1.27,3.28,.65,1.22,8.28-3.41,18.12-3.69,3.53-.1,7.09-.16,8.85,2.05,1.68,2.12,.43,4.73,0,10.66-.48,6.76,1,6.47,.42,11.07-.3,2.44-1.37,10.93-7.16,13.94-4.1,2.13-7.26-.22-9.27,2.05-2.32,2.61,1.24,6.41,.42,12.3-.94,6.75-6.4,7.45-8.43,13.12-4.12,11.52,12.04,26.56,13.48,27.88,11.77,10.73,18.4,6.74,26.12,14.76,12.92,13.43,7.3,38.09,5.05,47.97-3.39,14.9-7.86,16.27-18.12,45.92-5.33,15.42-4.1,14.98-6.32,18.45-17.16,26.85-74.59,27.55-80.04,15.17-.58-1.31,.04-4.98,1.27-12.3,1.8-10.73,3.88-16.02,.84-19.27-1.14-1.22-1.39-.43-4.21-2.46-4.03-2.89-6.26-6.45-7.58-8.61-1.59-2.6-2.39-3.9-2.53-4.92-.73-5.47,5.89-8.05,10.53-18.45,.64-1.47,1.2-2.98,1.69-4.51,6.63-18.66,28.58-28.25,32.86-47.97,1.27-5.87,.72-11.43,.42-14.35-.77-7.65-2.67-10.3-3.56-11.24-.12-.13-.23-.23-.23-.24-2.3-2.2-5.81-2.1-7.16-2.05-3.17,.13-5.64,1.17-9.69,2.87-2.76,1.16-3.21,1.59-4.63,1.64-2.46,.08-5.4-1.07-6.74-3.28-.12-.2-.22-.42-.31-.64-.37-.8-.83-1.55-1.38-2.23-.47-.63-1.04-1.19-1.69-1.64-.24-.16-.49-.3-.74-.43-.57-.29-.81-.3-1.37-.8-.54-.44-.98-1-1.27-1.64-.2-.48-.16-.68-.42-1.23-.23-.45-.51-.86-.84-1.23-.57-.75-.56-1.38-.84-2.87-.21-1.11-.49-2.21-.84-3.28-.59-1.69-1.13-3.24-2.53-4.1-1.7-1.05-3.61-.52-4.63-2.05-.43-.65-.5-1.55,2.11-8.2"/><rect id="Rectangle_402" class="cls-1" x="135.97" y="136.87" width="238.24" height="278.31"/></g><g id="Group_19"><g class="cls-9"><g id="Group_17"><path id="Path_205" class="cls-7" d="M358.87,374.05c-1.81,6.92-8.2,10.05-9.43,10.62-7.13,3.31-13.48,.53-20.33-.09-21.16-1.92-28.59,18.61-38.47,15.22-19.09-6.56-23.41-83.02-5.27-87.48,4.46-1.1,5.31,3.38,23.38,12.29,19.14,9.44,31.47,10.96,40.39,22.42,1.9,2.42,3.55,5.04,4.91,7.81,3.07,6.28,6.52,12.66,4.81,19.21"/></g></g></g><g id="Group_18"><g class="cls-11"><g id="Group_17-2"><path id="Path_205-2" class="cls-6" d="M137.91,257.8c6.84-.39,11.49,6.53,12.36,7.87,5.02,7.79,4.26,16.93,5.6,25.88,4.16,27.65,25.02,29.13,24.68,43.01-.67,26.83-69.44,62.02-78.58,40.69-2.25-5.25,1.61-8.07,4.72-34.51,3.29-28.02,1.24-44.28,9.22-60.08,1.63-3.27,3.56-6.37,5.77-9.28,4.89-6.35,9.77-13.21,16.24-13.58"/></g></g></g><g id="Group_14"><g id="Group_21"><path id="Path_201" class="cls-8" d="M140.48,319.51c.01-.74,2.61-1.44,4.75-1.65,4.29-.42,6.09,1.19,7.68,.01,1.12-.83,1.52-2.57,.93-3.67-.38-.72-1.2-1.19-5.06-1.82-5.17-.85-6.47-.45-9.08-1.56-.53-.23-3.9-1.66-3.72-3.16,.08-.61,.73-1.13,1.35-1.34,1.42-.47,2.55,.74,5.06,1.82,.59,.25,5.43,2.34,7,.82,.64-.62,.6-1.78,.22-2.57-.54-1.16-1.81-1.53-5.9-2.75-4.31-1.28-6.47-1.95-6.8-3.11-.16-.56-.04-1.36,.45-1.69,1.18-.78,3.39,1.97,6.31,1.63,1.04-.12,2.61-.69,3.23-1.77,2.25-3.97-9.74-12.6-7.91-14.98,.53-.7,2.03-.57,2.8-.36,2.6,.69,2.41,3.69,5.25,6.73,2.1,2.24,5.82,4.47,7.99,3.49,1.96-.89,2.77-4.44,2.89-4.96,.23-.99,.2-2.25,1.21-3.36,.23-.24,.83-.9,1.3-.76,.95,.27,.62,3.58,.57,4.07-.16,1.5-.46,2.15-1.27,4.77-1.14,3.69-1.39,5.08-1.51,5.94-.3,2.15-.53,3.98,.52,4.64,.64,.4,1.86,.43,2.47-.1,.16-.15,.29-.34,.36-.55,.63-1.77,1.78-2.49,2.56-4.69,.4-1.12,0-.67,.6-3.41,.42-1.9,.8-3.02,1.66-4.06,.42-.51,1.07-1.29,1.56-1.16,.8,.22,.76,2.72,.54,4.36-.2,1.51-.65,3.03-2.4,6.43-2.47,4.79-3.95,6.36-3.14,7.81,.42,.75,1.18,1.24,2.04,1.31,2.21,.06,3.04-3.84,7.54-8.92,.37-.42,3.39-3.8,3.99-3.43,.51,.31-.81,3.37-2.35,5.86-2.99,4.83-6.45,6.93-5.66,8.48,.48,.95,2.07,.73,2.32,1.61,.35,1.28-2.73,2.6-3.71,3.74-4.97,5.8,20.13,34.97,21.3,34.13,1.18-.86-24.55-31.17-31.03-28.26-.73,.33-2.18,1.51-4.78,1.94-2.59,.43-2.8-.48-5.52-.13-2.44,.31-3.09,1.14-6.91,1.77-1.21,.2-2.35,.38-2.47,.1-.21-.49,2.8-2.11,4.88-3.08,5.16-2.41,8.97-2.84,8.9-3.35-.06-.4-2.51-.78-4.88-.37-1.73,.29-2.97,1.01-4.65,.51-.17-.05-1.46-.45-1.45-.97"/><path id="Path_202" class="cls-8" d="M191.08,198.2c.36-.31,2.71,3.03,5.51,2.87,3.51-.21,5.41-5.8,6.43-5.45,1.24,.42-1.89,8.5,.31,9.75,2.36,1.34,9-6.25,11.03-4.87,.66,.45,.7,1.75,.31,2.58-.87,1.87-4.03,1.67-4.29,3.15-.13,.74,.55,1.37,.61,1.43,1.48,1.35,4.78-.03,4.9,.29,.12,.31-3.08,1.12-5.51,3.15-2.72,2.28-4.63,5.85-3.67,6.88,.84,.91,3.46-.64,6.74-1.43,9.41-2.27,19.26,3.21,18.99,4.3-.35,1.43-18.65-2.28-19.29,0-.35,1.24,4.92,2.83,12.86,8.6,3.75,2.73,9.06,7.09,8.58,7.74-.58,.78-10.36-2.4-18.68-9.46-5.38-4.56-8.39-9.24-15.93-11.47-1.75-.52-2.97-.88-4.59-.86-6.44,.06-12.12,5.94-18.07,15.77-11.75,19.41-15.03,38.55-14.39,38.7,.91,.21,3.95-39.35,22.66-52.74,1.94-1.39,9.54-6.42,8.88-12.04-.4-3.43-3.81-6.51-3.37-6.88"/></g></g><g id="Group_20"><g class="cls-10"><g id="Group_20-2"><path id="Path_207" d="M224.37,324.06c1.6-3.85,1.94-7.5,2.1-9.46,.46-5.46-.48-9.34-2.1-16.05-1.65-6.83-2.52-10.28-4.81-12.32-1.2-1.07-4.41-3.51-6.61-5.16-2.11-1.59-3.44-2.53-3.91-4.3-.08-.3-.64-2.57,.6-4.3,.66-.8,1.36-1.57,2.1-2.29,.4-.39,.75-.82,1.05-1.29,.24-.36,.45-.74,.6-1.15,.08-.29,.18-.58,.3-.86,.16-.31,.36-.6,.6-.86,.82-.92,1.09-.9,1.5-1.43,.58-.75,.23-1.05,.75-1.86,.45-.64,1.07-1.14,1.8-1.43,1.21-.54,1.94-.39,3-1.15,.33-.23,.49-.35,.6-.57,.36-.73-.39-1.42-.6-2.58-.03-.18-.27-1.56,.3-2.29,1.04-1.33,4.09,.33,8.71,0,1.75-.14,3.47-.53,5.11-1.15,5.03-1.75,4.54-3.68,8.71-4.87,2.39-.69,4.34-.57,6.01-2.29,.18-.19,1.2-1.24,.9-1.72-.63-1.03-6.8,1.38-8.41,2.01-9.07,3.54-15.18,7.94-15.32,7.74-.08-.11,1.93-1.65,4.21-3.15,1.78-1.17,3.14-1.95,9.91-5.45,5.47-2.82,6.28-3.19,7.81-3.44,1.56-.25,5.11-.57,5.11-.57,.61,.16,1.21,.35,1.8,.57,1.38,.57,1.27,1.22,2.4,1.72,1.05,.46,1.43,.02,2.7,.29,1.41,.29,2.06,1.06,3.3,2.01,.88,.67,1,.62,4.81,2.58,5.86,3.02,7.66,4.21,7.81,4.01,.19-.26-2.68-2.57-5.11-4.3-3.84-2.73-6.71-4.12-6.61-4.3,.09-.17,2.79,.69,5.71,2.29,4.79,2.62,7.82,5.94,12.02,10.6,1.43,1.59,3.11,3.55,3.91,4.59,5.54,7.22,5.39,18.17,4.81,34.39-1.07,29.75-1.81,27.97-1.2,33.53,.68,5.14,.68,10.34,0,15.48-.81,5.9-1.67,5.23-2.71,11.46-1.46,8.79-2.69,16.24-1.5,22.93,.22,1.22,.87,4.43-.9,6.02-1.06,.95-2.32,.71-3.3,2.01-.82,1.08-.3,1.72-.9,3.44-.88,2.5-2.44,2.35-3,4.3-.76,2.6,1.44,4.78,.6,5.45-.79,.63-2.67-1.33-4.51-.57-1.21,.5-1.2,1.67-2.1,1.72-1.23,.06-1.59-2.08-3.3-2.29-1.09-.14-1.57,.65-2.4,.29-.93-.41-.86-1.63-1.5-1.72-.72-.1-1.03,1.37-1.8,1.43-1.54,.12-2.58-5.5-4.21-5.45-.19,0-.62,.1-1.5,1.72-.95,1.78-1.56,3.73-1.8,5.73-.5,3.58-1.14,6.34-1.2,6.59-2.15,8.64-60.7,10.84-64.89-4.01-.96-3.41,1.32-6.38,1.2-17.48-.06-5.02-.56-7.88-2.1-10.03-.89-1.28-1.7-2.62-2.4-4.01-.83-1.52-1.09-2.36-1.2-3.44-.24-2.27,.79-4.1,2.4-6.88,.8-1.4,1.71-2.74,2.7-4.01,5.59-6.52,11.61-12.64,18.03-18.34,11.07-9.54,13.77-10.9,15.92-16.05"/><path id="Path_208" class="cls-5" d="M199.35,411.8c17.75,6.13,53.72,3.31,55.4-3.43,.06-.25,.7-3.01,1.2-6.59,.24-2.01,.85-3.95,1.8-5.73,.88-1.62,1.31-1.71,1.5-1.72,1.63-.05,2.67,5.56,4.21,5.45,.77-.06,1.09-1.53,1.8-1.43,.65,.09,.57,1.31,1.5,1.72,.83,.36,1.32-.42,2.4-.29,1.71,.21,2.07,2.36,3.3,2.29,.91-.05,.9-1.22,2.1-1.72,1.84-.76,3.72,1.2,4.51,.57,.84-.67-1.36-2.85-.6-5.45,.57-1.95,2.12-1.8,3-4.3,.61-1.71,.08-2.35,.9-3.44,.98-1.29,2.24-1.05,3.3-2.01,1.78-1.59,1.12-4.8,.9-6.02-1.19-6.69,.04-14.14,1.5-22.93,1.03-6.23,1.9-5.56,2.7-11.46,.68-5.14,.68-10.34,0-15.48-.61-5.56,.13-3.78,1.2-33.53,.58-16.22,.74-27.17-4.81-34.39-.8-1.04-2.48-3-3.91-4.59-.9-1-1.74-1.93-2.55-2.8l-81.38,157.27Z"/></g></g></g><circle class="cls-2" cx="242.93" cy="242.93" r="242.43"/></svg>