<?xml version="1.0" encoding="UTF-8"?><svg id="Layer_1" xmlns="http://www.w3.org/2000/svg" viewBox="0 0 123.44 117.12"><defs><style>.cls-1{fill:#6c7654;}</style></defs><path class="cls-1" d="M0,60.79V1.03H15.07c6.65,0,10.28,6.51,10.28,16.7s-3.63,16.78-10.28,16.78H3.3v26.28H0ZM3.3,29.97H15.07c4.4,0,6.76-4.28,6.76-10.19v-4.11c0-5.82-2.36-10.1-6.76-10.1H3.3V29.97Z"/><path class="cls-1" d="M36.36,60.79h-3.3V1.03h15.07c6.54,0,10.28,6.16,10.28,16.61,0,9.16-2.97,15.24-8.47,16.35,3.02,8.24,6.03,16.48,9.05,24.73-.72-.64-1.58-1.33-2.59-1.99-.8-.53-1.56-.96-2.27-1.31-2.53-7.03-5.06-14.05-7.59-21.08h-10.17v26.45Zm11.77-30.82c4.4,0,6.76-4.28,6.76-10.19v-4.11c0-5.82-2.36-10.1-6.76-10.1h-11.77V29.97h11.77Z"/><path class="cls-1" d="M65.51,30.91c0-20.21,5.94-30.91,15.73-30.91s15.67,10.7,15.67,30.91-5.94,30.91-15.67,30.91-15.73-10.7-15.73-30.91Zm27.88,3.77v-7.53c0-14.21-4.84-22.52-12.15-22.52s-12.21,8.3-12.21,22.52v7.53c0,14.21,4.84,22.52,12.21,22.52s12.15-8.3,12.15-22.52Z"/><path class="cls-1" d="M121.82,1.03V45.2c0,10.53-4.12,16.61-10.39,16.61-5.39,0-9.13-5.05-10.12-12.5l2.91-1.11c.88,5.22,3.24,9.07,7.31,9.07,4.56,0,6.98-4.45,6.98-12.84V5.57h-13.31V1.03h16.61Z"/><path class="cls-1" d="M0,116.24V56.48H23.29v4.54H3.42v22.6H22.32v4.54H3.42v23.54H23.29v4.54H0Z"/><path class="cls-1" d="M30.85,86.38c0-20.12,6.48-31.08,17.64-31.08,7.2,0,12.25,4.88,14.98,12.76l-3.18,2.48c-2.01-6.51-6.09-10.62-11.8-10.62-8.43,0-13.49,8.39-13.49,23.12v6.76c0,14.64,5.06,22.69,13.49,22.69,6.03,0,10.18-4.37,12.12-11.22l3.18,2.48c-2.66,8.13-7.97,13.36-15.3,13.36-11.15,0-17.64-10.53-17.64-30.74Z"/><path class="cls-1" d="M80.17,61.81v55.22h-3.42V61.81h-13.36v-4.54h30.14v4.54h-13.36Z"/><path class="cls-1" d="M96.56,106.93l2.57-3.17c2.8,5.57,6.16,8.82,11.36,8.82,6.16,0,9.59-4.62,9.59-12.5,0-7.36-2.97-10.19-8.05-11.81l-3.54-1.11c-3.47-1.06-6.04-2.78-7.81-5.14-3.16-4.21-3.08-8.92-3.03-10.87,.16-7.2,4.21-12.04,5.44-13.4,.83,1.01,1.66,2.01,2.5,3.02-.92,.91-4.41,4.6-4.57,10.21-.04,1.39-.14,4.55,1.97,7.45,1.43,1.97,3.56,3.12,6.2,3.94l3.54,1.11c7.93,2.57,10.73,8.13,10.73,16.35,0,10.87-4.97,17.29-13.07,17.29-6.51,0-10.73-4.02-13.81-10.19Z"/><rect class="cls-1" x="63.39" y="56.49" width="30.27" height=".79"/></svg>